# xmcd
#
# Track frame offsets:
#	150
#	13486
#	27676
#	42516
#
# Disc length: 764 seconds
# Revision: 0
# Processed by: cddbd v1.5.2PL0 Copyright (c) Steve Scherf et al.
# Submitted via: dBpowerAMP V12.0
#
DISCID=3602fa04
DTITLE=Old Barrels - Closed Doors
DYEAR=2018
DGENRE=Country
TTITLE0=10 Years Down the Road
TTITLE1=Going Down
TTITLE2=How Long
TTITLE3=Supa Dope
EXTD=
EXTT0=
EXTT1=
EXTT2=
EXTT3=
PLAYORDER=
